HIERARCHY
ROOT Hips
{
	OFFSET 0.000000 0.000000 0.000000
	CHANNELS 6 Xposition Yposition Zposition Xrotation Yrotation Zrotation
	JOINT LeftUpLeg_virtual
	{
		OFFSET 0.000000 0.000000 0.000000
		CHANNELS 3 Xrotation Yrotation Zrotation
		JOINT LeftUpLeg
		{
			OFFSET 13.026900 -6.336304 -1.092800
			CHANNELS 3 Xrotation Yrotation Zrotation
			JOINT LeftLeg
			{
				OFFSET 0.524474 -46.096886 9.782700
				CHANNELS 3 Xrotation Yrotation Zrotation
				JOINT LeftFoot
				{
					OFFSET -0.524474 -53.427422 -12.948200
					CHANNELS 3 Xrotation Yrotation Zrotation
					JOINT LeftToeBase
					{
						OFFSET 0.192200 -14.009700 16.364100
						CHANNELS 3 Xrotation Yrotation Zrotation
						JOINT LeftToe_End
						{
							OFFSET -1.784700 -0.561700 9.474800
							CHANNELS 3 Xrotation Yrotation Zrotation
							End Site
							{
								OFFSET 0 0 0
							}
						}
					}
				}
			}
		}
	}
	JOINT RightUpLeg_virtual
	{
		OFFSET 0.000000 0.000000 0.000000
		CHANNELS 3 Xrotation Yrotation Zrotation
		JOINT RightUpLeg
		{
			OFFSET -12.883000 -6.336304 -1.092800
			CHANNELS 3 Xrotation Yrotation Zrotation
			JOINT RightLeg
			{
				OFFSET -0.524587 -46.096825 9.782800
				CHANNELS 3 Xrotation Yrotation Zrotation
				JOINT RightFoot
				{
					OFFSET 0.524587 -53.427383 -12.948300
					CHANNELS 3 Xrotation Yrotation Zrotation
					JOINT RightToeBase
					{
						OFFSET -0.192200 -14.009700 16.364100
						CHANNELS 3 Xrotation Yrotation Zrotation
						JOINT RightToe_End
						{
							OFFSET 1.784700 -0.561700 9.474800
							CHANNELS 3 Xrotation Yrotation Zrotation
							End Site
							{
								OFFSET 0 0 0
							}
						}
					}
				}
			}
		}
	}
	JOINT Spine_virtual
	{
		OFFSET 0.000000 0.000000 0.000000
		CHANNELS 3 Xrotation Yrotation Zrotation
		JOINT Spine
		{
			OFFSET 0.072000 7.257294 -0.789700
			CHANNELS 3 Xrotation Yrotation Zrotation
			JOINT Spine1
			{
				OFFSET 0.000000 12.508769 -0.658067
				CHANNELS 3 Xrotation Yrotation Zrotation
				JOINT Spine1_split
				{
					OFFSET 0.000000 12.508769 -0.658067
					CHANNELS 3 Xrotation Yrotation Zrotation
					JOINT Spine2
					{
						OFFSET 0.000000 12.508769 -0.658067
						CHANNELS 3 Xrotation Yrotation Zrotation
						JOINT Neck_virtual
						{
							OFFSET 0.000000 0.000000 0.000000
							CHANNELS 3 Xrotation Yrotation Zrotation
							JOINT Neck
							{
								OFFSET 0.000000 14.033295 7.520400
								CHANNELS 3 Xrotation Yrotation Zrotation
								JOINT Head
								{
									OFFSET 0.000000 8.198502 5.703100
									CHANNELS 3 Xrotation Yrotation Zrotation
									JOINT HeadTop_End
									{
										OFFSET 0.000000 17.760803 13.332701
										CHANNELS 3 Xrotation Yrotation Zrotation
										End Site
										{
											OFFSET 0 0 0
										}
									}
								}
							}
						}
						JOINT LeftShoulder_virtual
						{
							OFFSET 0.000000 0.000000 0.000000
							CHANNELS 3 Xrotation Yrotation Zrotation
							JOINT LeftShoulder
							{
								OFFSET 6.292450 5.785301 -0.669000
								CHANNELS 3 Xrotation Yrotation Zrotation
								JOINT LeftShoulder_split
								{
									OFFSET 6.292450 5.785301 -0.669000
									CHANNELS 3 Xrotation Yrotation Zrotation
									JOINT LeftArm
									{
										OFFSET 13.907140 -6.093903 1.965100
										CHANNELS 3 Xrotation Yrotation Zrotation
										JOINT LeftForeArm
										{
											OFFSET 34.140198 0.000000 0.000000
											CHANNELS 3 Xrotation Yrotation Zrotation
											JOINT LeftHand
											{
												OFFSET 40.960209 0.000000 0.000000
												CHANNELS 3 Xrotation Yrotation Zrotation
												End Site
												{
													OFFSET 0 0 0
												}
											}
										}
									}
								}
							}
						}
						JOINT RightShoulder_virtual
						{
							OFFSET 0.000000 0.000000 0.000000
							CHANNELS 3 Xrotation Yrotation Zrotation
							JOINT RightShoulder
							{
								OFFSET -6.292450 5.785301 -0.669000
								CHANNELS 3 Xrotation Yrotation Zrotation
								JOINT RightShoulder_split
								{
									OFFSET -6.292450 5.785301 -0.669000
									CHANNELS 3 Xrotation Yrotation Zrotation
									JOINT RightArm
									{
										OFFSET -13.907140 -6.093903 1.965100
										CHANNELS 3 Xrotation Yrotation Zrotation
										JOINT RightForeArm
										{
											OFFSET -34.140198 0.000000 0.000000
											CHANNELS 3 Xrotation Yrotation Zrotation
											JOINT RightHand
											{
												OFFSET -40.960209 0.000000 0.000000
												CHANNELS 3 Xrotation Yrotation Zrotation
												End Site
												{
													OFFSET 0 0 0
												}
											}
										}
									}
								}
							}
						}
					}
				}
			}
		}
	}
}
MOTION
Frames: 10
Frame Time: 0.03333333
1.964845 65.057899 14.050510 0.000000 0.000000 0.000000 -3.750188 7.837619 -0.071138 -88.766108 -8.715146 11.360184 81.467396 3.651174 -0.935291 14.114853 -6.865183 -8.501445 -3.665185 -0.048422 0.073008 0.000000 0.000000 0.000000 -4.209029 8.689928 0.052156 -90.342011 10.455553 -11.339167 82.210124 -2.506465 -1.188819 14.156312 0.635588 8.300555 2.384953 0.874195 -0.074373 0.000000 0.000000 0.000000 -3.516695 3.101988 -0.570011 10.942965 -0.522394 -2.822293 1.826741 0.605375 -0.397684 1.229835 2.214631 -0.329788 0.000000 0.000000 0.000000 1.069833 0.271766 -0.421485 -0.944018 -4.832723 1.069430 -9.615912 -0.616728 -1.864599 0.000000 0.000000 0.000000 2.086366 -0.344951 -0.456361 0.527993 -12.224125 -5.922646 -6.529661 1.215034 -3.055711 -0.482002 -16.210897 -56.207566 6.513401 -64.881032 5.447283 0.000000 0.000000 0.000000 1.211618 0.360669 0.149045 2.964052 -5.435351 8.074862 4.357369 5.632612 0.956640 -7.344800 34.320659 64.013913 -4.356679 58.410617 -0.058382 0.000000 0.000000 0.000000 
1.821521 65.013855 13.934402 0.000000 0.000000 0.000000 -3.963925 7.627656 0.007672 -88.568702 -8.765308 11.399186 81.643020 3.584066 -0.932133 14.341889 -6.799368 -8.436175 -3.765319 -0.026175 0.064005 0.000000 0.000000 0.000000 -4.521105 8.459176 0.162418 -90.331902 10.333281 -11.505442 82.566557 -2.372420 -1.251770 14.113239 0.804224 8.273356 2.579096 0.881565 -0.064246 0.000000 0.000000 0.000000 -3.983356 3.138435 -0.560066 10.742901 -0.609746 -2.772039 2.096924 0.619179 -0.349444 1.169666 2.172416 -0.087965 0.000000 0.000000 0.000000 1.254236 0.236844 -0.302761 -1.111771 -4.232364 1.044970 -10.175384 -0.451393 -1.842661 0.000000 0.000000 0.000000 2.201206 -0.284810 -0.438520 0.450924 -12.191406 -6.017800 -5.670223 -0.164765 -2.767305 -0.957589 -16.520496 -56.578449 6.933062 -64.301286 5.547612 0.000000 0.000000 0.000000 1.434989 0.310607 0.126911 2.888874 -5.058924 8.399236 4.046713 5.356882 0.964918 -7.153055 32.664055 62.590843 -3.667519 57.295308 -0.131426 0.000000 0.000000 0.000000 
1.650991 65.014091 13.839279 0.000000 0.000000 0.000000 -4.354998 7.401801 0.211462 -88.231414 -8.693158 11.405229 81.690510 3.650819 -0.935746 14.670048 -6.675520 -8.114513 -3.830211 0.009619 0.028392 0.000000 0.000000 0.000000 -4.953379 8.171569 0.379631 -90.105351 10.196528 -11.647363 82.783395 -2.227746 -1.384217 14.164685 0.979316 8.264282 2.594566 0.878322 -0.004258 0.000000 0.000000 0.000000 -4.517831 2.999260 -0.564080 10.428579 -0.765454 -2.652645 2.855082 0.560677 -0.290644 1.037136 2.122509 0.204023 0.000000 0.000000 0.000000 1.925040 0.172220 -0.231635 -1.191162 -3.651774 0.916085 -11.923897 -0.071449 -2.018114 0.000000 0.000000 0.000000 2.776718 -0.222678 -0.420820 0.338546 -12.731487 -6.146249 -4.977768 -1.560298 -2.160662 -0.874657 -17.089570 -56.277395 7.044276 -64.751915 5.580220 0.000000 0.000000 0.000000 2.230549 0.238156 0.053874 2.684621 -4.164359 8.874842 3.529309 5.221697 0.695396 -6.653564 30.496668 59.836439 -3.008157 58.031794 -0.221185 0.000000 0.000000 0.000000 
1.467555 65.102325 13.775459 0.000000 0.000000 0.000000 -4.836995 7.208170 0.508500 -87.819594 -8.533427 11.370260 81.555245 3.794957 -0.920739 15.059283 -6.531375 -7.684166 -3.866356 0.054094 -0.029399 0.000000 0.000000 0.000000 -5.386617 7.947961 0.667745 -89.691578 10.096562 -11.740409 82.753185 -2.117533 -1.551590 14.253894 1.103012 8.238855 2.466119 0.856613 0.094467 0.000000 0.000000 0.000000 -5.005694 2.652704 -0.541585 10.034299 -0.944926 -2.485396 4.032033 0.475171 -0.249919 0.903774 1.917245 0.537232 0.000000 0.000000 0.000000 3.024533 0.097829 -0.227951 -1.205606 -3.152505 0.619258 -14.709956 0.398201 -2.403078 0.000000 0.000000 0.000000 3.725764 -0.148735 -0.422395 0.187500 -13.790026 -6.275930 -4.535631 -2.512477 -1.739982 -0.450703 -17.463399 -54.814689 6.949069 -67.075538 5.641263 0.000000 0.000000 0.000000 3.504256 0.165225 -0.076585 2.381478 -2.824405 9.461949 2.875353 5.157219 0.280680 -6.234623 28.156859 56.045961 -2.290004 61.712200 -0.384597 0.000000 0.000000 0.000000 
1.309067 65.267647 13.716698 0.000000 0.000000 0.000000 -5.328692 7.043260 0.863287 -87.432131 -8.303224 11.302605 81.309195 3.978802 -0.870408 15.481015 -6.411709 -7.330318 -3.888032 0.094161 -0.079683 0.000000 0.000000 0.000000 -5.740887 7.877324 0.992383 -89.194614 10.067810 -11.784052 82.534421 -2.083208 -1.691221 14.376138 1.151533 8.172397 2.311495 0.822496 0.197106 0.000000 0.000000 0.000000 -5.380867 2.215731 -0.439256 9.546487 -1.123688 -2.304750 5.509555 0.388404 -0.254732 0.721601 1.860767 0.704617 0.000000 0.000000 0.000000 4.446741 0.025551 -0.303931 -1.064749 -2.762352 0.124660 -18.168761 0.890089 -2.913228 0.000000 0.000000 0.000000 4.984194 -0.082243 -0.458132 0.008991 -15.244651 -6.401674 -3.987923 -3.163574 -1.573955 0.076021 -17.345841 -51.800766 7.030376 -71.690451 6.000690 0.000000 0.000000 0.000000 5.092187 0.097743 -0.267860 1.984584 -1.184846 10.118271 2.558553 5.073078 -0.071359 -6.440314 25.950843 51.642036 -1.481881 68.870040 -0.649664 0.000000 0.000000 0.000000 
1.187257 65.441673 13.632362 0.000000 0.000000 0.000000 -5.696668 6.930037 1.223416 -87.187570 -8.021121 11.198956 81.040037 4.176238 -0.793938 15.862909 -6.345615 -7.200645 -3.901580 0.117082 -0.093867 0.000000 0.000000 0.000000 -5.934985 7.900604 1.315776 -88.818578 10.133073 -11.798634 82.284143 -2.127800 -1.755193 14.528545 1.139552 8.110614 2.161666 0.783322 0.267628 0.000000 0.000000 0.000000 -5.560098 1.871461 -0.200607 8.938583 -1.285144 -2.176326 7.137904 0.311140 -0.336330 0.440685 1.838248 0.532617 0.000000 0.000000 0.000000 6.075186 -0.050506 -0.444561 -0.678338 -2.446324 -0.589543 -21.916981 1.272779 -3.442247 0.000000 0.000000 0.000000 6.431969 -0.051021 -0.535901 -0.181702 -16.771106 -6.485435 -3.276160 -3.668577 -1.518143 -0.128848 -16.909692 -47.110748 8.140642 -78.605109 7.426753 0.000000 0.000000 0.000000 6.802894 0.013944 -0.496655 1.516021 0.705829 10.679262 2.602517 5.244067 0.012493 -7.852943 23.903582 46.907130 -0.315252 78.770297 -1.304726 0.000000 0.000000 0.000000 
1.091641 65.554337 13.571125 0.000000 0.000000 0.000000 -5.733373 6.903778 1.550693 -87.202268 -7.669926 11.088826 80.795988 4.406117 -0.743884 16.077796 -6.332588 -7.280425 -3.953188 0.117470 -0.047494 0.000000 0.000000 0.000000 -5.855105 7.980930 1.612032 -88.727484 10.248353 -11.821142 82.131085 -2.229187 -1.737411 14.658653 1.103154 8.114313 1.957056 0.748464 0.275297 0.000000 0.000000 0.000000 -5.482885 1.668152 0.177399 8.191605 -1.438332 -2.132102 8.738121 0.213443 -0.486390 0.057883 1.711439 0.149303 0.000000 0.000000 0.000000 7.747686 -0.163391 -0.615799 -0.067123 -2.203960 -1.490606 -25.706016 1.425403 -3.894681 0.000000 0.000000 0.000000 7.950093 -0.082030 -0.638512 -0.359252 -18.037616 -6.401222 -2.606212 -4.135229 -1.708200 -1.746708 -16.523749 -40.849975 21.255395 -87.060351 20.856669 0.000000 0.000000 0.000000 8.463493 -0.126118 -0.724548 1.018712 2.711850 10.931709 2.717361 5.512124 0.538004 -11.069512 22.188267 42.042014 74.783898 89.765932 -75.989160 0.000000 0.000000 0.000000 
1.031669 65.548950 13.567966 0.000000 0.000000 0.000000 -5.341640 6.923798 1.794306 -87.553080 -7.288036 11.005889 80.607304 4.699782 -0.747509 16.018962 -6.332575 -7.509498 -4.055692 0.099099 0.059120 0.000000 0.000000 0.000000 -5.432060 8.061666 1.857751 -89.034992 10.418959 -11.808812 82.181191 -2.358835 -1.660583 14.684487 1.093620 8.152356 1.716426 0.729121 0.212899 0.000000 0.000000 0.000000 -5.019249 1.680604 0.604121 7.331311 -1.603162 -2.188275 10.170479 0.069684 -0.669959 -0.072120 1.586273 -0.295634 0.000000 0.000000 0.000000 9.259239 -0.345631 -0.750718 0.714952 -2.018998 -2.474749 -29.346225 1.205230 -4.223725 0.000000 0.000000 0.000000 9.379839 -0.208084 -0.745448 -0.483667 -18.725945 -5.993378 -2.044051 -4.597344 -1.694472 -5.580726 -16.795145 -33.443526 172.756029 -83.932889 172.626543 0.000000 0.000000 0.000000 9.933907 -0.332393 -0.912450 0.533099 4.657144 10.590070 2.908440 5.573214 1.218539 -16.509069 20.856724 37.168797 178.733907 79.509672 -179.730732 0.000000 0.000000 0.000000 
1.029972 65.440025 13.639961 0.000000 0.000000 0.000000 -4.443474 6.971464 1.941061 -88.288125 -7.033116 10.929238 80.539064 4.997430 -0.773893 15.732359 -6.336349 -7.879099 -4.161507 0.074039 0.182434 0.000000 0.000000 0.000000 -4.563551 8.085391 2.027578 -89.795882 10.683236 -11.699901 82.470108 -2.504923 -1.538102 14.542091 1.099051 8.155069 1.513896 0.730244 0.108171 0.000000 0.000000 0.000000 -4.040553 1.880490 0.970471 6.426981 -1.773211 -2.296916 11.370387 -0.115789 -0.852018 -0.032920 1.310919 -0.407941 0.000000 0.000000 0.000000 10.523416 -0.590039 -0.805458 1.577648 -1.855641 -3.354049 -32.822962 0.679648 -4.466294 0.000000 0.000000 0.000000 10.620101 -0.429260 -0.828775 -0.507801 -18.678590 -5.070870 -1.808363 -4.680712 -1.567167 -11.755061 -18.143242 -25.421312 176.906626 -76.392688 177.036864 0.000000 0.000000 0.000000 11.125362 -0.619478 -1.041849 0.146048 6.350221 9.483862 2.850500 5.377848 1.872241 -24.203737 20.263623 32.530801 179.906732 70.832743 179.148895 0.000000 0.000000 0.000000 
1.074636 65.229683 13.859051 0.000000 0.000000 0.000000 -3.104470 6.960533 1.995006 -89.411787 -7.036199 10.798604 80.671904 5.254988 -0.806522 15.327952 -6.338842 -8.308760 -4.191614 0.049805 0.268916 0.000000 0.000000 0.000000 -3.299777 7.974400 2.121311 -90.976446 11.058346 -11.454409 82.961349 -2.645949 -1.393026 14.278959 1.083040 8.094897 1.372749 0.745636 -0.002224 0.000000 0.000000 0.000000 -2.534785 2.152371 1.213555 5.557080 -1.919431 -2.392064 12.344450 -0.324489 -1.004620 0.276635 0.701234 -0.275547 0.000000 0.000000 0.000000 11.524859 -0.861679 -0.785267 2.430827 -1.754783 -3.948518 -36.177979 -0.119364 -4.729268 0.000000 0.000000 0.000000 11.622618 -0.704240 -0.868972 -0.381823 -17.962074 -3.582880 -2.068861 -4.534506 -1.444676 -19.791773 -20.579640 -17.797656 177.142951 -70.562247 177.559619 0.000000 0.000000 0.000000 11.994692 -0.959694 -1.111695 -0.052586 7.663707 7.597855 2.729024 4.903124 2.372252 -33.644651 20.605202 28.581523 -179.362434 64.349446 178.372057 0.000000 0.000000 0.000000 
